<?xml version="1.0" standalone="no"?>
<!DOCTYPE svg PUBLIC "-//W3C//DTD SVG 20010904//EN"
 "http://www.w3.org/TR/2001/REC-SVG-20010904/DTD/svg10.dtd">
<svg version="1.0" xmlns="http://www.w3.org/2000/svg"
 width="695.000000pt" height="695.000000pt" viewBox="0 0 695.000000 695.000000"
 preserveAspectRatio="xMidYMid meet">
<metadata>
Created by potrace 1.11, written by Peter Selinger 2001-2013
</metadata>
<g transform="translate(0.000000,695.000000) scale(0.100000,-0.100000)"
fill="#000000" stroke="none">
<path d="M3454 5860 c-10 -4 -27 -6 -36 -4 -10 1 -18 -2 -18 -7 0 -6 -4 -8 -9
-5 -9 6 -106 -19 -133 -34 -10 -6 -24 -10 -31 -10 -39 0 -267 -143 -351 -220
-73 -66 -81 -75 -127 -130 -121 -143 -201 -320 -239 -525 -17 -90 -18 -160
-18 -718 1 -339 -2 -620 -5 -623 -3 -3 -92 -7 -198 -9 -106 -2 -220 -7 -254
-10 -33 -3 -82 -8 -110 -11 -27 -2 -57 -7 -65 -9 -8 -2 -40 -6 -70 -9 -30 -3
-66 -8 -80 -11 -14 -3 -41 -8 -60 -12 -19 -4 -39 -6 -43 -5 -5 2 -7 -1 -5 -5
8 -18 100 -196 127 -247 77 -142 104 -203 98 -219 -4 -12 -1 -14 11 -10 13 5
14 3 5 -7 -7 -7 -17 -9 -25 -4 -19 12 -39 14 -32 3 3 -5 10 -7 15 -4 5 4 9 4
9 1 0 -3 -10 -10 -21 -17 -14 -7 -19 -7 -15 -1 8 13 -24 8 -53 -8 -28 -15 -27
-23 2 -10 21 11 21 10 3 -4 -13 -10 -23 -12 -31 -6 -7 6 -20 -1 -39 -20 -15
-17 -32 -30 -38 -30 -6 0 0 9 13 20 21 18 20 18 -16 -2 -22 -12 -42 -26 -43
-30 -2 -5 -8 -6 -13 -2 -5 3 -9 1 -9 -5 0 -6 -10 -15 -21 -22 -17 -9 -20 -8
-14 3 3 7 -1 4 -9 -6 -9 -11 -16 -16 -16 -11 0 5 -7 0 -16 -11 -8 -10 -12 -13
-8 -5 4 8 2 12 -5 10 -7 -3 -12 -8 -11 -13 1 -4 -7 -14 -17 -21 -14 -10 -21
-11 -32 -2 -12 10 -13 9 -7 -8 4 -11 4 -16 0 -12 -4 4 -14 1 -22 -6 -13 -10
-15 -9 -8 3 4 9 1 8 -7 -2 -8 -10 -22 -18 -31 -18 -10 0 -15 -4 -12 -9 3 -5
-5 -12 -19 -15 -14 -4 -25 -11 -25 -17 0 -6 -4 -8 -9 -5 -5 3 -12 -1 -15 -10
-3 -8 -10 -13 -15 -10 -18 11 -5 -23 16 -41 93 -82 157 -139 272 -243 46 -41
87 -76 92 -78 11 -4 12 -32 1 -32 -7 0 -169 -159 -249 -246 -131 -141 -218
-256 -201 -265 7 -4 63 -26 123 -48 61 -23 119 -46 130 -51 11 -5 94 -37 185
-71 91 -34 188 -71 215 -81 28 -11 91 -34 140 -53 83 -31 225 -86 485 -187 58
-23 110 -45 117 -50 7 -6 17 -7 23 -3 5 3 10 2 10 -3 0 -9 20 -18 44 -20 5 0
13 -6 17 -14 7 -11 9 -10 9 1 0 12 3 11 13 -2 6 -9 22 -18 34 -20 11 -2 29 -9
39 -17 11 -9 15 -10 10 -3 -5 9 -2 11 8 7 9 -3 13 -11 9 -17 -4 -6 0 -8 10 -4
10 3 17 2 17 -3 0 -5 7 -7 15 -4 9 4 15 0 15 -7 0 -11 3 -11 10 1 7 11 10 11
10 2 0 -7 5 -10 10 -7 6 3 10 1 10 -5 0 -6 5 -8 10 -5 6 3 10 1 10 -6 0 -6 8
-9 20 -6 11 3 20 1 20 -4 0 -5 7 -9 15 -9 8 0 23 -4 33 -9 9 -6 46 -19 81 -31
36 -12 74 -26 85 -33 12 -6 24 -10 29 -9 4 1 7 -3 7 -10 0 -6 3 -9 6 -5 4 3
23 0 43 -8 65 -25 184 -46 291 -53 150 -10 266 4 420 49 66 19 237 101 269
129 9 8 24 20 33 25 55 35 79 56 132 110 32 33 77 85 100 115 47 61 126 186
126 197 0 5 16 49 35 98 19 50 37 106 41 125 3 19 8 49 11 65 4 24 8 488 13
1661 l0 81 86 -2 c47 0 88 3 90 7 3 5 11 5 17 1 6 -4 77 -6 157 -4 80 1 283 4
453 5 169 2 309 5 312 8 2 2 -1 15 -8 28 -7 14 -12 32 -12 40 1 8 -7 32 -17
53 -10 20 -16 37 -12 37 4 0 1 7 -6 15 -7 8 -9 15 -4 15 4 0 3 5 -4 12 -7 7
-12 17 -12 24 0 6 -8 29 -17 50 -9 22 -17 41 -18 44 -1 3 -5 17 -9 33 -5 15
-13 27 -19 27 -6 0 -8 3 -5 6 10 9 -145 354 -165 366 -7 4 -9 8 -5 8 9 0 -61
122 -76 132 -6 4 -7 8 -3 8 5 0 0 13 -9 29 -10 17 -21 28 -26 25 -4 -3 -5 2
-2 10 3 9 1 16 -5 16 -6 0 -11 5 -11 11 0 12 -80 133 -92 137 -4 2 -8 10 -8
18 0 8 -4 14 -10 14 -5 0 -10 6 -10 14 0 8 -3 16 -7 18 -5 2 -35 37 -68 78
-67 84 -311 332 -394 400 -29 25 -59 50 -65 56 -6 5 -47 38 -91 73 -44 34 -87
68 -95 74 -52 41 -161 117 -168 117 -5 0 -17 9 -27 20 -10 11 -22 20 -28 20
-5 0 -23 12 -40 26 -17 14 -38 23 -48 21 -12 -3 -16 0 -12 9 3 8 -1 14 -7 14
-7 0 -38 12 -69 26 -82 38 -91 42 -150 59 -30 8 -57 13 -59 10 -3 -3 -10 -1
-16 4 -6 5 -29 11 -51 15 -22 3 -51 8 -65 12 -36 9 -313 12 -336 4z m-1764
-2900 c0 -5 -5 -10 -11 -10 -5 0 -7 5 -4 10 3 6 8 10 11 10 2 0 4 -4 4 -10z"/>
</g>
</svg>
